<?xml version="1.0" standalone="no"?><!DOCTYPE svg PUBLIC "-//W3C//DTD SVG 1.1//EN" "http://www.w3.org/Graphics/SVG/1.1/DTD/svg11.dtd"><svg t="1563799622114" class="icon" viewBox="0 0 1024 1024" version="1.1" xmlns="http://www.w3.org/2000/svg" p-id="684" xmlns:xlink="http://www.w3.org/1999/xlink" width="200" height="200"><defs><style type="text/css"></style></defs><path d="M256 320a256 256 0 1 1 392.128 216.832A384.128 384.128 0 0 1 896 896a32 32 0 1 1-64 0 320 320 0 0 0-640 0 32 32 0 1 1-64 0 384.128 384.128 0 0 1 247.872-359.168A255.808 255.808 0 0 1 256 320z m256 192a192 192 0 1 0 0-384 192 192 0 0 0 0 384z" p-id="685"></path></svg>