<?xml version="1.0" standalone="no"?><!DOCTYPE svg PUBLIC "-//W3C//DTD SVG 1.1//EN" "http://www.w3.org/Graphics/SVG/1.1/DTD/svg11.dtd"><svg t="1565622841435" class="icon" viewBox="0 0 1024 1024" version="1.1" xmlns="http://www.w3.org/2000/svg" p-id="3152" xmlns:xlink="http://www.w3.org/1999/xlink" width="200" height="200"><defs><style type="text/css"></style></defs><path d="M853.333333 910.222222c0 35.441778-21.447111 56.888889-56.888889 56.888889H227.555556c-35.384889 0-56.888889-21.447111-56.888889-56.888889V227.555556H113.664L113.777778 910.222222c0 70.712889 71.338667 113.777778 142.051555 113.777778h512C838.542222 1024 910.222222 980.935111 910.222222 910.222222l-0.227555-682.666666H853.333333v682.666666zM341.333333 341.333333v455.111111h56.888889V341.333333H341.333333z m284.444445 0v455.111111h56.888889V341.333333h-56.888889zM-0.056889 113.777778v56.945778H1024V113.777778H-0.056889zM739.555556 0H284.444444v56.888889h455.111112V0z" p-id="3153"></path></svg>