<?xml version="1.0" standalone="no"?><!DOCTYPE svg PUBLIC "-//W3C//DTD SVG 1.1//EN" "http://www.w3.org/Graphics/SVG/1.1/DTD/svg11.dtd"><svg t="1566569934133" class="icon" viewBox="0 0 1024 1024" version="1.1" xmlns="http://www.w3.org/2000/svg" p-id="1309" xmlns:xlink="http://www.w3.org/1999/xlink" width="200" height="200"><defs><style type="text/css"></style></defs><path d="M925.77792 858.60864c-2.68288 53.13536-70.94272 40.96-107.1104 40.96H145.16736c-28.78464 0-41.14944-24.3456-41.14944-49.32096V696.8832 238.64832c0-34.46784-9.984-96.84992 42.12224-96.84992h732.13952c49.36704 0 47.49312 41.79968 47.49312 77.68576v445.43488l0.00512 193.6896c0 33.01376 51.2 33.01376 51.2 0v-343.04-232.90368c0-36.9152 4.34688-76.81024-1.25952-113.5104-6.912-45.27616-46.30528-78.55104-92.0576-78.55104H202.17856c-47.10912 0-98.3808-6.26176-130.65728 36.89984-26.5216 35.46624-18.69312 88.33024-18.69312 130.19648v598.43584c0 42.90048 26.02496 76.25728 65.5616 90.73152 14.18752 5.19168 31.04256 3.90656 46.04416 3.90656h717.45024c53.11488 0 92.46208-39.86944 95.09888-92.16 1.664-33.01888-49.54112-32.86016-51.20512-0.00512z" fill="#2c2c2c" p-id="1310"></path><path d="M78.42304 341.30944h872.95488c33.01376 0 33.01376-51.2 0-51.2h-872.96c-33.01376 0-33.01376 51.2 0.00512 51.2zM313.47712 592.60928l153.34912 153.34912c9.86624 9.86624 26.34752 9.86624 36.20352 0 88.40704-88.41216 176.81408-176.8192 265.22624-265.22112 23.36768-23.36256-12.83584-59.56608-36.1984-36.1984-88.41216 88.40192-176.8192 176.81408-265.22624 265.22112h36.20352l-153.34912-153.34912c-23.3728-23.3728-59.5712 12.83584-36.20864 36.1984z" fill="#2c2c2c" p-id="1311"></path></svg>