<?xml version="1.0" standalone="no"?><!DOCTYPE svg PUBLIC "-//W3C//DTD SVG 1.1//EN" "http://www.w3.org/Graphics/SVG/1.1/DTD/svg11.dtd"><svg t="1566998968979" class="icon" viewBox="0 0 1024 1024" version="1.1" xmlns="http://www.w3.org/2000/svg" p-id="3649" xmlns:xlink="http://www.w3.org/1999/xlink" width="200" height="200"><defs><style type="text/css"></style></defs><path d="M631.744221 201.224977c0-68.690452-53.595662-124.331703-119.770827-124.331703-66.118883 0-119.718639 55.641251-119.718639 124.331703l-59.883879 0 0 62.167898 359.260294 0 0-62.167898L631.744221 201.224977 631.744221 201.224977zM452.089515 201.224977c0-34.320667 26.825972-62.163805 59.883879-62.163805 33.062 0 59.886949 27.843138 59.886949 62.163805L452.089515 201.224977 452.089515 201.224977zM452.089515 201.224977" p-id="3650"></path><path d="M785.04777 201.224977l-48.202838 0 0 62.167898 24.103978 0c17.759479 0 32.113395 15.880689 32.113395 35.515888l0 550.572504c0 19.577894-14.353916 35.514865-32.113395 35.514865L263.001973 884.996133c-17.70729 0-32.117488-15.936971-32.117488-35.514865L230.884484 298.908764c0-19.635199 14.353916-35.515888 32.117488-35.515888l24.099884 0 0-62.167898-48.202838 0c-35.468816 0-64.23293 31.818683-64.23293 71.030753l0 603.873454c0 39.158858 28.764114 70.976518 64.23293 70.976518l546.148751 0c35.524075 0 64.285119-31.818683 64.285119-71.030753L849.332888 272.255731C849.332888 233.04366 820.571844 201.224977 785.04777 201.224977L785.04777 201.224977 785.04777 201.224977zM785.04777 201.224977" p-id="3651"></path><path d="M332.370877 760.611218l359.260294 0c16.504906 0 29.916357-13.926174 29.916357-31.05939 0-17.129122-13.411451-31.054273-29.916357-31.054273L332.370877 698.497555c-16.504906 0-29.919427 13.925151-29.919427 31.054273C302.45145 746.685044 315.814806 760.611218 332.370877 760.611218L332.370877 760.611218 332.370877 760.611218zM332.370877 760.611218" p-id="3652"></path><path d="M332.370877 605.220125l359.260294 0c16.504906 0 29.916357-13.921058 29.916357-31.054273s-13.411451-31.054273-29.916357-31.054273L332.370877 543.111578c-16.504906 0-29.919427 13.921058-29.919427 31.054273C302.399261 591.353302 315.814806 605.220125 332.370877 605.220125L332.370877 605.220125 332.370877 605.220125zM332.370877 605.220125" p-id="3653"></path><path d="M332.370877 449.834148l359.260294 0c16.504906 0 29.916357-13.921058 29.916357-31.054273 0-17.133216-13.411451-31.055297-29.916357-31.055297L332.370877 387.724579c-16.504906 0-29.919427 13.922081-29.919427 31.055297C302.399261 435.966303 315.814806 449.834148 332.370877 449.834148L332.370877 449.834148 332.370877 449.834148zM332.370877 449.834148" p-id="3654"></path></svg>