<?xml version="1.0" standalone="no"?><!DOCTYPE svg PUBLIC "-//W3C//DTD SVG 1.1//EN" "http://www.w3.org/Graphics/SVG/1.1/DTD/svg11.dtd"><svg t="1565940986303" class="icon" viewBox="0 0 1024 1024" version="1.1" xmlns="http://www.w3.org/2000/svg" p-id="913" xmlns:xlink="http://www.w3.org/1999/xlink" width="200" height="200"><defs><style type="text/css"></style></defs><path d="M885.8 265.4c-3.9-5.9-10.7-9.4-17.8-9.4-17.1 0-26.8 18.9-17.4 33.2 50 75.7 75.3 169.1 64.3 268.8-20.7 187.8-173.4 338.6-361.4 357.3-256 25.4-469.4-187.7-444.8-443.5 17.9-185.7 165-337.8 350.1-361.6 111.5-14.3 215.2 17.1 295.9 77.6 3.7 2.7 8.1 4.3 12.6 4.3 20.5 0 29.5-26.3 13.1-38.6-87.2-65.4-199-99.8-319.1-86.6C253.9 89.7 87.5 257.5 66.4 465c-28.9 283.6 207 520.3 490.4 492.9 211.9-20.5 382.6-193.1 401.4-405.1 9.5-106.7-18.7-206.2-72.4-287.4zM639.6 488.7c-16 4.1-21.5 23.8-9.8 35.5 5 5 12.3 7.5 19.3 5.8 32.2-7.9 62-28.1 81-62.4 22.6-40.6 20.7-91.8-4.8-130.6-46.3-70.3-142-77.3-198.2-21.1-5.4 5.4-10.3 11.2-14.3 17-15.4 22-23.2 47.7-23.1 73.5l1.1 115.1 0.9 94.1v3.6c-0.5 21.3-8.7 42.5-24.9 58.7-38 38-103 32.7-133.4-16.1-16.6-26.6-16.6-61.7 0-88.4 12.6-20.3 31.1-32.9 51.1-38.1 16-4.1 21.5-23.8 9.8-35.5-5-5-12.3-7.5-19.3-5.8-32.2 7.9-62 28.1-81 62.4-22.6 40.6-20.7 91.8 4.8 130.6 45.2 68.6 137.3 76.7 194 24.9v0.2c1.5-1.2 2.9-2.6 4.2-3.9 4.9-4.9 9.2-10.2 13.1-15.6 0.3-0.5 0.9-0.9 1.2-1.4 0.2-0.3 0.4-0.7 0.6-1 3.4-5 6.4-10.1 9.1-15.4 0.4-0.7 0.7-1.5 1-2.2 2.4-5.1 4.5-10.3 6.2-15.6 0.2-0.5 0.4-1.1 0.6-1.6 1.7-5.5 2.9-11.1 3.8-16.7 0.2-1.3 0.4-2.6 0.5-3.8 0.7-5.7 1.3-11.4 1.2-17.1l-1.1-115.1-0.9-93.5V405c0.5-21.3 8.7-42.5 24.9-58.7 38-38 103-32.7 133.4 16.1 16.6 26.6 16.6 61.7 0 88.4-12.5 20.2-31 32.8-51 37.9z" fill="#13227a" p-id="914"></path></svg>