<?xml version="1.0" standalone="no"?><!DOCTYPE svg PUBLIC "-//W3C//DTD SVG 1.1//EN" "http://www.w3.org/Graphics/SVG/1.1/DTD/svg11.dtd"><svg t="1565706487724" class="icon" viewBox="0 0 1024 1024" version="1.1" xmlns="http://www.w3.org/2000/svg" p-id="818" xmlns:xlink="http://www.w3.org/1999/xlink" width="200" height="200"><defs><style type="text/css"></style></defs><path d="M512 1024c-281.6 0-512-230.4-512-512s230.4-512 512-512 512 230.4 512 512S793.6 1024 512 1024zM512 51.2C256 51.2 51.2 256 51.2 512S256 972.8 512 972.8 972.8 768 972.8 512 768 51.2 512 51.2z" fill="#1a358d" p-id="819"></path><path d="M774.4 537.6 249.6 537.6C236.8 537.6 224 524.8 224 512s12.8-25.6 25.6-25.6l531.2 0c12.8 0 25.6 12.8 25.6 25.6S787.2 537.6 774.4 537.6z" fill="#1a358d" p-id="820"></path></svg>