<?xml version="1.0" standalone="no"?><!DOCTYPE svg PUBLIC "-//W3C//DTD SVG 1.1//EN" "http://www.w3.org/Graphics/SVG/1.1/DTD/svg11.dtd"><svg t="1566567521394" class="icon" viewBox="0 0 1198 1024" version="1.1" xmlns="http://www.w3.org/2000/svg" p-id="3332" xmlns:xlink="http://www.w3.org/1999/xlink" width="233.984375" height="200"><defs><style type="text/css"></style></defs><path d="M49.93994 287.270268h136.585737a236.965017 236.965017 0 0 0 462.693548 0h499.399404a49.93994 49.93994 0 0 0 0-99.879881H649.219225a236.965017 236.965017 0 0 0-463.442647 0H49.93994a49.93994 49.93994 0 0 0 0 99.879881zM418.247001 99.995492a137.334836 137.334836 0 1 1-137.334836 137.334836 137.584536 137.584536 0 0 1 137.334836-137.334836zM1148.618629 736.729732h-136.585737a236.965017 236.965017 0 0 0-462.693548 0H49.93994a49.93994 49.93994 0 0 0 0 99.879881h499.399404a236.965017 236.965017 0 0 0 463.442647 0H1148.618629a49.93994 49.93994 0 0 0 0-99.879881zM780.311569 924.004508a137.334836 137.334836 0 1 1 137.334836-137.334836 137.584536 137.584536 0 0 1-137.334836 137.334836z" fill="#3A3A3A" p-id="3333"></path></svg>