<?xml version="1.0" standalone="no"?><!DOCTYPE svg PUBLIC "-//W3C//DTD SVG 1.1//EN" "http://www.w3.org/Graphics/SVG/1.1/DTD/svg11.dtd"><svg t="1566208700954" class="icon" viewBox="0 0 1113 1024" version="1.1" xmlns="http://www.w3.org/2000/svg" p-id="1151" xmlns:xlink="http://www.w3.org/1999/xlink" width="217.3828125" height="200"><defs><style type="text/css"></style></defs><path d="M909.712696 0c-97.947826 0-173.634783 80.13913-173.634783 173.634783 0 22.26087 4.452174 44.521739 13.356522 66.782608l-387.339131 191.443479c-31.165217-53.426087-89.043478-84.591304-155.826087-84.591305-106.852174 0-191.443478 84.591304-191.443478 191.443478s84.591304 191.443478 191.443478 191.443479c62.330435 0 115.756522-31.165217 151.373913-75.686957l235.965218 142.469565c-4.452174 13.356522-4.452174 31.165217-4.452174 44.52174 0 84.591304 71.234783 155.826087 155.826087 155.826087s155.826087-71.234783 155.826087-155.826087-71.234783-155.826087-155.826087-155.826087c-53.426087 0-97.947826 26.713043-124.66087 66.782608l-231.513043-142.469565c8.904348-22.26087 13.356522-44.521739 13.356522-71.234783 0-22.26087-4.452174-40.069565-8.904348-57.87826l378.434782-195.895653c31.165217 40.069565 80.13913 66.782609 133.565218 66.782609 97.947826 0 173.634783-80.13913 173.634782-173.634782s-71.234783-178.086957-169.182608-178.086957z m-169.182609 765.773913c44.521739 0 80.13913 35.617391 80.13913 80.13913s-35.617391 80.13913-80.13913 80.139131-80.13913-35.617391-80.13913-80.139131 35.617391-80.13913 80.13913-80.13913z m-534.26087-111.304348c-62.330435 0-115.756522-53.426087-115.756521-115.756522s53.426087-115.756522 115.756521-115.756521 115.756522 53.426087 115.756522 115.756521-53.426087 115.756522-115.756522 115.756522z m703.443479-382.886956c-53.426087 0-97.947826-44.521739-97.947826-97.947826s44.521739-97.947826 97.947826-97.947826 97.947826 44.521739 97.947826 97.947826-44.521739 97.947826-97.947826 97.947826z" fill="#494949" p-id="1152"></path></svg>