<?xml version="1.0" standalone="no"?><!DOCTYPE svg PUBLIC "-//W3C//DTD SVG 1.1//EN" "http://www.w3.org/Graphics/SVG/1.1/DTD/svg11.dtd"><svg t="1566201341630" class="icon" viewBox="0 0 1185 1024" version="1.1" xmlns="http://www.w3.org/2000/svg" p-id="1151" xmlns:xlink="http://www.w3.org/1999/xlink" width="231.4453125" height="200"><defs><style type="text/css"></style></defs><path d="M250.813996 237.343857a53.880558 53.880558 0 1 0 53.880558-53.880558 53.880558 53.880558 0 0 0-53.880558 53.880558zM522.102605 237.343857a53.880558 53.880558 0 1 0 53.880557-53.880558 53.880558 53.880558 0 0 0-53.880557 53.880558z" fill="#13227a" p-id="1152"></path><path d="M1067.643252 886.873981a281.256511 281.256511 0 0 0 8.620889-451.249672A387.40121 387.40121 0 0 0 880.677716 350.223625a323.283346 323.283346 0 0 0-34.483557-124.194685 377.163904 377.163904 0 0 0-95.63799-118.537227 500.280979 500.280979 0 0 0-619.626414 0 372.85346 372.85346 0 0 0-95.368587 118.537227A321.936333 321.936333 0 0 0 46.606682 538.805577a388.478821 388.478821 0 0 0 105.605894 115.034991l-42.296238 122.847672a26.940279 26.940279 0 0 0 7.812681 29.095501 26.940279 26.940279 0 0 0 29.903709 4.041042l165.682715-80.820837a515.90634 515.90634 0 0 0 127.427519 15.625362h26.940279a305.772165 305.772165 0 0 0 94.560379 134.701394 398.98553 398.98553 0 0 0 257.279663 89.711129 419.998948 419.998948 0 0 0 110.455144-14.54775l134.701394 66.003683a26.940279 26.940279 0 0 0 11.853723 2.694028 26.940279 26.940279 0 0 0 26.940279-35.830571z m-143.052881 13.470139a371.506446 371.506446 0 0 1-105.33649 15.086556c-172.148382 0-311.968429-115.573796-311.96843-257.818469s139.820047-257.549066 311.96843-257.549066S1131.491713 515.636938 1131.491713 657.612207a242.46251 242.46251 0 0 1-110.993949 196.933439 26.940279 26.940279 0 0 0-10.237306 31.250723l19.935806 57.9216-85.670087-41.757432a26.940279 26.940279 0 0 0-11.853722-2.963431 25.054459 25.054459 0 0 0-8.082084 1.347014z m-484.92502-208.787161a467.413838 467.413838 0 0 1-122.847671-16.43357 26.940279 26.940279 0 0 0-19.127598 1.616416l-116.112602 56.574586 26.940278-80.820837a26.940279 26.940279 0 0 0-10.506708-31.520126A300.653512 300.653512 0 0 1 53.880558 372.85346C53.880558 197.202841 227.645356 53.880558 440.742962 53.880558c202.052092 0 368.543015 128.50513 385.245988 291.76322h-6.735069a399.254933 399.254933 0 0 0-257.279664 89.980531 288.79979 288.79979 0 0 0-107.761115 221.987898 279.101289 279.101289 0 0 0 2.155222 33.675349z" fill="#13227a" p-id="1153"></path><path d="M670.004736 549.042883a40.679821 40.679821 0 1 0 40.679821-40.679821 40.679821 40.679821 0 0 0-40.679821 40.679821zM886.873981 549.042883a40.949224 40.949224 0 1 0 40.679821-40.679821 40.679821 40.679821 0 0 0-40.679821 40.679821z" fill="#13227a" p-id="1154"></path></svg>