<?xml version="1.0" standalone="no"?><!DOCTYPE svg PUBLIC "-//W3C//DTD SVG 1.1//EN" "http://www.w3.org/Graphics/SVG/1.1/DTD/svg11.dtd"><svg t="1566016241020" class="icon" viewBox="0 0 1024 1024" version="1.1" xmlns="http://www.w3.org/2000/svg" p-id="1625" xmlns:xlink="http://www.w3.org/1999/xlink" width="200" height="200"><defs><style type="text/css"></style></defs><path d="M715.802 239.474V95.833c0.01-17.092 13.875-30.939 30.966-30.928 17.077 0.01 30.917 13.852 30.927 30.928v143.641h136.766c17.091-0.011 30.956 13.836 30.966 30.927 0.01 17.092-13.836 30.957-30.927 30.967H777.696V458.1c0.012 17.092-13.836 30.956-30.927 30.967-17.091 0.01-30.956-13.836-30.966-30.928V301.37H577.038c-17.091 0.011-30.956-13.836-30.966-30.928s13.836-30.956 30.927-30.966h138.803zM532.215 89.73c17.092 0.01 30.94 13.875 30.928 30.966-0.01 17.076-13.852 30.917-30.928 30.927h-374.46c-10.476 0-18.968 8.493-18.968 18.968v707.641c0 10.482 8.485 18.968 18.968 18.968h708.489c10.482 0 18.968-8.485 18.968-18.968V524.387c-0.01-17.091 13.836-30.956 30.927-30.966 17.092-0.011 30.956 13.836 30.967 30.927v353.885c0 44.66-36.203 80.862-80.862 80.862h-708.49c-44.658 0-80.86-36.203-80.86-80.862v-707.64c0-44.674 36.187-80.862 80.86-80.862h374.461z" fill="#8a8a8a" p-id="1626"></path></svg>