<?xml version="1.0" standalone="no"?><!DOCTYPE svg PUBLIC "-//W3C//DTD SVG 1.1//EN" "http://www.w3.org/Graphics/SVG/1.1/DTD/svg11.dtd"><svg t="1566016263037" class="icon" viewBox="0 0 1028 1024" version="1.1" xmlns="http://www.w3.org/2000/svg" p-id="1751" xmlns:xlink="http://www.w3.org/1999/xlink" width="200.78125" height="200"><defs><style type="text/css"></style></defs><path d="M786.821168 649.286111z m-767.628899-316.646921l479.768062 275.067022c9.595361 6.396907 19.190722 3.198454 28.786084 0l482.966515-275.067022c9.595361-6.396907 15.992269-15.992269 15.992269-25.58763 0-9.595361-6.396907-19.190722-15.992269-25.58763L527.746415 6.396907c-9.595361-6.396907-19.190722-6.396907-28.786084 0L15.993815 281.46393c-9.595361 6.396907-15.992269 15.992269-15.992269 25.58763 3.198454 9.595361 9.595361 19.190722 19.190723 25.58763zM514.9526 60.770621l425.394348 243.082485L514.9526 546.935591 89.558251 303.853106 514.9526 60.770621zM19.192269 543.737137l482.966516 275.067022c9.595361 6.396907 19.190722 3.198454 28.786083 0L1013.911384 543.737137c12.793815-6.396907 19.190722-25.58763 9.595361-38.381445-6.396907-12.793815-25.58763-19.190722-38.381445-9.595361L514.9526 758.033538 47.978352 492.561877c-12.793815-6.396907-31.984537-3.198454-38.381445 9.595361-9.595361 15.992269-6.396907 31.984537 9.595362 41.579899z m965.933031 150.327326L514.9526 962.734578 47.978352 697.262917c-12.793815-6.396907-31.984537-3.198454-38.381445 9.595361-6.396907 12.793815-3.198454 31.984537 9.595362 38.381445l482.966516 275.067022c9.595361 6.396907 19.190722 3.198454 28.786083 0l482.966516-275.067022c12.793815-6.396907 19.190722-25.58763 9.595361-38.381445-9.595361-15.992269-25.58763-22.389176-38.381445-12.793815z" fill="#2c2c2c" p-id="1752"></path></svg>