<?xml version="1.0" standalone="no"?><!DOCTYPE svg PUBLIC "-//W3C//DTD SVG 1.1//EN" "http://www.w3.org/Graphics/SVG/1.1/DTD/svg11.dtd"><svg t="1566203875154" class="icon" viewBox="0 0 1024 1024" version="1.1" xmlns="http://www.w3.org/2000/svg" p-id="1277" xmlns:xlink="http://www.w3.org/1999/xlink" width="200" height="200"><defs><style type="text/css"></style></defs><path d="M792.343 338.579c-28.79 0-55.865-11.217-76.215-31.587-42.045-42.05-42.045-110.49-0.02-152.535 20.325-20.375 47.42-31.602 76.235-31.602 28.805 0 55.89 11.217 76.24 31.602 42.05 42.025 42.05 110.457 0.03 152.535-20.395 20.37-47.465 31.587-76.27 31.587m0.22-163.089c-14.705 0-28.51 5.72-38.875 16.112-21.445 21.445-21.425 56.355 0.025 77.81 20.73 20.755 56.96 20.77 77.735-0.013 21.45-21.442 21.45-56.352 0-77.797-10.385-10.392-24.205-16.112-38.885-16.112m-339.849 831.792c-16.665 0-32.337-6.485-44.092-18.285l-374.8-374.744c-11.777-11.785-18.262-27.445-18.262-44.11 0-16.66 6.485-32.31 18.282-44.08L524.149 35.772c20.775-20.777 52.545-20.777 73.565-20.777l13.755 0.048 320.909-0.048c41.635 0 75.5 33.877 75.5 75.502l-0.06 320.907 0.04 6.96c0.105 29.19 0.25 59.377-20.765 80.347L496.806 989.018c-11.78 11.779-27.45 18.264-44.092 18.264m145-949.14c-17.675 0-35.555 0.63-43.065 8.13L64.327 556.569c-3.625 3.64-5.622 8.445-5.622 13.575 0 5.14 1.997 9.965 5.622 13.59l374.794 374.779c7.247 7.265 19.912 7.245 27.177 0l490.299-490.304c8.285-8.28 8.205-28.375 8.12-49.662l-0.025-7.142 0.04-320.907c0-17.84-14.515-32.355-32.36-32.355l-320.909 0.042-13.749-0.043z" fill="#8a8a8a" p-id="1278"></path></svg>