<?xml version="1.0" standalone="no"?><!DOCTYPE svg PUBLIC "-//W3C//DTD SVG 1.1//EN" "http://www.w3.org/Graphics/SVG/1.1/DTD/svg11.dtd"><svg t="1566016071753" class="icon" viewBox="0 0 1026 1024" version="1.1" xmlns="http://www.w3.org/2000/svg" p-id="1246" xmlns:xlink="http://www.w3.org/1999/xlink" width="200.390625" height="200"><defs><style type="text/css"></style></defs><path d="M480.0798 574.563591c-10.214464 0-15.321696-5.107232-20.428927-10.214464-10.214464-10.214464-10.214464-30.643392 0-45.965087l510.723192-510.723192c10.214464-10.214464 30.643392-10.214464 45.965087 0 10.214464 10.214464 10.214464 30.643392 0 45.965087l-510.723192 510.723192c-10.214464 10.214464-20.428928 10.214464-25.53616 10.214464z" fill="#333333" p-id="1247"></path><path d="M990.802993 513.276808c-15.321696 0-30.643392-15.321696-30.643392-30.643392V63.840399h-413.685786c-20.428928 0-35.750623-10.214464-35.750623-30.643392s15.321696-30.643392 30.643392-30.643391h449.436409c15.321696 0 30.643392 15.321696 30.643391 30.643391v449.436409c0 15.321696-15.321696 30.643392-30.643391 30.643392zM924.408978 1024H97.037406c-51.072319 0-97.037406-40.857855-97.037406-97.037406V99.591022C0 43.411471 40.857855 2.553616 97.037406 2.553616h194.074813c15.321696 0 25.53616 15.321696 25.53616 30.643391s-10.214464 30.643392-30.643391 30.643392H97.037406c-15.321696 0-30.643392 15.321696-30.643391 30.643392V921.855362c0 15.321696 15.321696 30.643392 30.643391 30.643391h827.371572c15.321696 0 30.643392-15.321696 30.643391-30.643391v-194.074813c0-15.321696 15.321696-30.643392 30.643392-30.643392s35.750623 20.428928 35.750623 40.857855v194.074813c0 51.072319-40.857855 91.930175-97.037406 91.930175z" fill="#333333" p-id="1248"></path></svg>